<svg xmlns="http://www.w3.org/2000/svg" xmlns:xlink="http://www.w3.org/1999/xlink" viewBox="0 0 1280 800"><defs><style>.a,.f{fill:#fff;}.a{stroke:#707070;}.b{clip-path:url(#a);}.c{fill:#572aea;}.d{opacity:0.759;}.e{fill:#00b48a;opacity:0.78;}.g{fill:#fa5b47;}.h{fill:#6fffdd;}</style><clipPath id="a"><rect class="a" width="1280" height="800"/></clipPath></defs><g class="b"><rect class="c" width="1280" height="800"/><path class="d" d="M7.645,483.977l4.413-3.394s13.433-151.9,93.58-213.542S219.394,227.288,252.1,188.656C337.927,87.26,319.919,78.5,355.382,75S449.651,211.668,474.5,220.061s115.124-78.055,151.566-50.668,128.757,85.583,118.868,168.588-96.35,79.707-158.426,163.432S496.63,672.879,496.63,672.879,617.688,682,705.185,619.322s166.156-155.6,204.649-138.739-50.678,206.163-50.678,206.163l92.47,159.414s141.887-2.019,149.267,31.831S981.148,981.56,981.148,981.56L-63.377,1019.083Z" transform="translate(-281 -242.635)"/><path class="e" d="M1129.269,42.444s-169.857,100.5-135.2,118.492S1194.4,81.487,1267.9,114.408s99.143,74.892,18.757,170.175S1000.469,434.8,946.363,495.54s112.419,99.156,216.159,75.03S1275.7,359.49,1316.353,373.656s-12.44,190.185,8.78,253.58,76.1,0,76.1,0l165.655-436.22L1459.631-127.595Z" transform="translate(-272.571 -133.359) rotate(2)"/><path class="f" d="M1528.06,11.321S1145.621-54.156,943.73-21.531s-216.8,114.349-196.346,131.15S914.73,120.453,943.73,169.254s-1.1,78.514-80.345,135.569-322.862,62.8-236.617,92.652,365.266,32.883,438.708-20.116,222.111-175.479,277.173-98.113,30.515,332.576-56.925,407.577-263.99-139.562-292.837-107.571S969.6,765.035,1011.122,871.673s54.094,166.122,147.856,134.131,134.922-210.7,227.192-262.1,141.89,56.51,141.89,56.51Z" transform="translate(-248.061 -25)"/><path class="g" d="M0,546.192s141.5,51.725,253.8-13.5S391.219,252.473,449.192,285.274,511.2,487.4,567.33,532.688s66.745-44.074,93.345-7.5,111.01-173.927,143.661-147.984-63.722,220.177,0,192.972,86.088-33.7,124.284,0,93.662,302.781,29.939,364.24S743.606,808.5,673.731,816.014s-7.4,50.058-7.4,50.058H0Z" transform="translate(-26.355 -59.669)"/><path class="c" d="M0,297.82s34.219-31.684,59.136,12.471S64.479,487.82,112.683,492.6s20.746-150.3,60.273-125.86,75.452,217.745,97.834,223.616S226.679,385.4,262.482,390.226,385.109,645.185,414,609.671s-103.995-188.6-70.711-202.781S518.231,568.778,547.14,552.927s-43.027-68.948-18.089-119.479S654.963,362.161,646.893,350.8s-141.838-.12-168.841-28.548,88.016-66.032,60.83-85.165-131.449,36.818-170.739,8.977,34.662-110.984,13.579-120.34-79.009,111.93-102.682,102.393,24.769-140.54,7.989-140.54S139.5,148.065,67.739,180.072,0,215.605,0,215.605Z" transform="translate(-313 -267)"/><path d="M360.486,800s95.738-20.923,136.6-83.7-6.542-125.564,26.851-167.419,83.7,55.219,106.72,0S592.373,306.012,616.018,328,689.7,588.41,725.241,636.846s-3.872-104.323,32.956-115.1,49.864,100.167,114.354,71.99,143.607-221.309,143.607-184.7S882.23,667.768,872.551,740.181s60.873-56.445,104.891-41.491S1048.622,800,1048.622,800L952.266,979.6s-541.981-19.062-550.2-19.062S360.486,800,360.486,800Z" transform="translate(-278 -4)"/><path class="h" d="M892.617,0S738.5,195.844,776.992,199.9,972.091,6.257,1046.581,16.216s-11.2,152.674,28.371,223.518,111.845-21.714,129.934,59.86,23.326,184.668-57.577,266.438S981.771,576.6,981.771,591.758s71.323,64.979,165.538,34.914,63.436-79.274,110.826-120.26,78.736-43.685,78.736-43.685V-26.43Z"/></g></svg>